<?xml version="1.0" encoding="UTF-8" standalone="no"?>
<svg
   xmlns:dc="http://purl.org/dc/elements/1.1/"
   xmlns:cc="http://creativecommons.org/ns#"
   xmlns:rdf="http://www.w3.org/1999/02/22-rdf-syntax-ns#"
   xmlns:svg="http://www.w3.org/2000/svg"
   xmlns="http://www.w3.org/2000/svg"
   xmlns:sodipodi="http://sodipodi.sourceforge.net/DTD/sodipodi-0.dtd"
   xmlns:inkscape="http://www.inkscape.org/namespaces/inkscape"
   viewBox="0 0 32 32"
   version="1.1"
   id="svg6"
   sodipodi:docname="save-32.svg"
   inkscape:version="0.92.4 (5da689c313, 2019-01-14)">
  <metadata
     id="metadata12">
    <rdf:RDF>
      <cc:Work
         rdf:about="">
        <dc:format>image/svg+xml</dc:format>
        <dc:type
           rdf:resource="http://purl.org/dc/dcmitype/StillImage" />
        <dc:title></dc:title>
      </cc:Work>
    </rdf:RDF>
  </metadata>
  <defs
     id="defs10" />
  <sodipodi:namedview
     pagecolor="#ffffff"
     bordercolor="#666666"
     borderopacity="1"
     objecttolerance="10"
     gridtolerance="10"
     guidetolerance="10"
     inkscape:pageopacity="0"
     inkscape:pageshadow="2"
     inkscape:window-width="3820"
     inkscape:window-height="1666"
     id="namedview8"
     showgrid="false"
     inkscape:zoom="7.375"
     inkscape:cx="17.491525"
     inkscape:cy="16"
     inkscape:window-x="0"
     inkscape:window-y="0"
     inkscape:window-maximized="0"
     inkscape:current-layer="svg6" />
  <path
     d="M24.6 3.2A1.005 1.005 0 0 0 24 3H4a1 1 0 0 0-1 1v24a1.001 1.001 0 0 0 1 1h24a1.001 1.001 0 0 0 1-1V7a1.004 1.004 0 0 0-.4-.8zM19 4h2v4h-2zM9 4h9v5h4V4h1v8H9zm14 24H9V18h14zm5 0h-4V17H8v11H4V4h4v8a1.001 1.001 0 0 0 1 1h14a1.001 1.001 0 0 0 1-1V4l4 2.999z"
     id="path2"
     style="fill:#2a7fff" />
  <path
     fill="none"
     d="M0 0h32v32H0z"
     id="path4" />
</svg>
